<svg xmlns="http://www.w3.org/2000/svg" width="512" height="512" viewBox="0 0 512 512" version="1.1"><path d="M 244.718 6.037 C 242.637 6.557, 239.487 7.727, 237.718 8.638 C 230.817 12.190, 97.423 89.328, 96.176 90.488 C 95.107 91.482, 102.802 96.307, 136.109 115.527 C 158.801 128.620, 177.847 139.327, 178.433 139.320 C 179.020 139.312, 196.756 129.334, 217.847 117.145 L 256.195 94.984 295.105 117.446 L 334.015 139.908 375.965 115.712 C 399.038 102.404, 417.597 91.226, 417.208 90.871 C 415.523 89.336, 278.140 10.494, 273.091 8.164 C 268.523 6.056, 265.762 5.539, 258 5.338 C 252.775 5.203, 246.798 5.518, 244.718 6.037 M 427.718 110.092 C 425.637 110.581, 422.487 111.710, 420.718 112.599 C 415.025 115.460, 257.546 206.278, 256.245 207.451 C 255.251 208.346, 255.043 228.007, 255.245 301.696 L 255.500 394.810 276.500 382.654 L 297.500 370.498 298 325.272 L 298.500 280.046 345.500 252.914 C 371.350 237.992, 393.063 225.558, 393.750 225.284 C 394.741 224.889, 394.998 236.456, 394.991 281.143 L 394.982 337.500 374.424 349.382 C 363.116 355.918, 354.233 361.615, 354.682 362.044 C 355.132 362.473, 373.949 373.470, 396.498 386.481 C 435.864 409.197, 437.595 410.082, 439.998 408.718 C 464.581 394.758, 469.645 390.551, 474.986 379.651 C 476.643 376.268, 478.461 370.974, 479.025 367.886 C 479.697 364.208, 479.956 324.371, 479.776 252.386 L 479.500 142.500 477.182 136.760 C 468.993 116.484, 448.194 105.270, 427.718 110.092" stroke="none" fill="rgba(255, 255, 255, 0.4)" fill-rule="evenodd"/><path d="M 63.281 109.970 C 53.303 112.341, 42.147 120.774, 36.706 130.058 C 30.763 140.199, 30.932 136.219, 31.229 258.683 L 31.500 370.652 35.714 379.155 C 38.517 384.813, 41.530 389.151, 44.714 392.116 C 49.484 396.559, 72.421 410.425, 73.783 409.690 C 84.688 403.806, 156.942 361.609, 156.636 361.303 C 156.396 361.063, 147.043 355.564, 135.850 349.083 L 115.500 337.300 115.242 280.625 L 114.983 223.950 119.816 226.725 C 122.474 228.251, 144.527 240.975, 168.822 255 L 212.994 280.500 213.009 325.500 L 213.025 370.500 233.458 382.250 C 244.697 388.712, 254.141 394, 254.446 394 C 254.751 394, 255 352.033, 255 300.741 L 255 207.481 172.916 160.110 C 120.816 130.042, 88.638 112.055, 84.826 110.869 C 78.704 108.963, 69.187 108.566, 63.281 109.970 M 135.740 397.274 C 103.235 416.059, 94.259 421.666, 95.240 422.573 C 98.139 425.252, 236.925 504.598, 241.500 506.193 C 247.641 508.332, 260.434 508.526, 267.708 506.590 C 271.070 505.695, 297.866 490.802, 343.305 464.574 C 382.019 442.227, 414.440 423.394, 415.350 422.722 C 416.763 421.679, 410.909 417.986, 375.363 397.500 C 352.459 384.300, 333.221 373.649, 332.610 373.830 C 332 374.012, 315.300 383.507, 295.500 394.930 C 275.700 406.353, 258.520 416.215, 257.321 416.846 C 255.387 417.865, 251.242 415.740, 220.321 397.873 C 201.170 386.807, 183.700 376.714, 181.500 375.446 L 177.500 373.139 135.740 397.274" stroke="none" fill="rgba(255, 255, 255, 0.8)" fill-rule="evenodd"/></svg>